<svg xmlns="http://www.w3.org/2000/svg" viewBox="0 0 96 128" width="96" height="128">
  <rect width="96" height="128" rx="12" fill="#0b0f19"/>
  <path d="M54 16l16 6-8 8-16-2z" fill="#4d6fbf"/>
  <path d="M36 20c-8 0-14 6-14 14s6 14 14 14h18c8 0 14-6 14-14s-6-14-14-14z" fill="#f2c29c"/>
  <rect x="34" y="44" width="26" height="14" rx="6" fill="#0b0f19" opacity="0.25"/>
  <rect x="26" y="58" width="44" height="38" rx="10" fill="#f26b32"/>
  <rect x="40" y="64" width="12" height="14" fill="#fff" opacity="0.9"/>
  <rect x="28" y="62" width="40" height="28" rx="10" fill="#f26b32"/>
  <rect x="22" y="60" width="8" height="24" rx="4" fill="#0b0f19" opacity="0.35"/>
  <rect x="58" y="60" width="8" height="24" rx="4" fill="#0b0f19" opacity="0.25"/>
  <rect x="30" y="88" width="14" height="32" rx="6" fill="#3d414c"/>
  <rect x="52" y="88" width="14" height="32" rx="6" fill="#2f333d"/>
  <rect x="26" y="116" width="22" height="8" rx="4" fill="#7cc7ff"/>
  <rect x="48" y="116" width="22" height="8" rx="4" fill="#7cc7ff"/>
  <rect x="18" y="42" width="18" height="12" rx="6" fill="#4d6fbf"/>
  <rect x="36" y="34" width="24" height="10" rx="4" fill="#4d6fbf"/>
  <rect x="20" y="36" width="16" height="10" rx="5" fill="#4d6fbf"/>
  <rect x="24" y="30" width="12" height="8" rx="3" fill="#4d6fbf"/>
  <path d="M26 80c0-8 6-14 14-14h16c8 0 14 6 14 14v12H26z" fill="#0b0f19" opacity="0.08"/>
</svg>
